<?xml version="1.0" standalone="no"?>
<!DOCTYPE svg PUBLIC "-//W3C//DTD SVG 20010904//EN"
 "http://www.w3.org/TR/2001/REC-SVG-20010904/DTD/svg10.dtd">
<svg version="1.0" xmlns="http://www.w3.org/2000/svg"
 width="700.000000pt" height="700.000000pt" viewBox="0 0 700.000000 700.000000"
 preserveAspectRatio="xMidYMid meet">
<metadata>
Created by potrace 1.11, written by Peter Selinger 2001-2013
</metadata>
<g transform="translate(0.000000,700.000000) scale(0.100000,-0.100000)"
fill="#000000" stroke="none">
<path d="M0 3500 l0 -3500 3500 0 3500 0 0 3500 0 3500 -3500 0 -3500 0 0
-3500z m3540 2790 l0 -90 -410 0 -410 0 0 -250 0 -250 395 0 395 0 0 -90 0
-90 -395 0 -395 0 0 -305 0 -305 420 0 420 0 0 -90 0 -90 -530 0 -530 0 0 825
0 825 520 0 520 0 0 -90z m2880 -3110 l0 -180 -140 0 -140 0 0 180 0 180 140
0 140 0 0 -180z m-4926 -872 c276 -521 505 -951 509 -954 4 -4 7 423 7 949 l0
957 150 0 150 0 0 -1150 0 -1150 -209 0 -208 0 -245 463 c-135 254 -364 686
-509 960 l-264 498 -3 -961 -2 -960 -150 0 -150 0 0 1150 0 1150 211 -2 211
-3 502 -947z m2316 391 c263 -67 448 -262 528 -558 24 -89 26 -111 26 -316 0
-208 -1 -225 -27 -319 -65 -242 -195 -414 -381 -505 -109 -53 -179 -71 -317
-78 -503 -26 -804 266 -844 817 -8 103 7 286 31 389 51 224 191 417 369 508
175 90 410 114 615 62z m2008 14 c22 -5 22 -8 22 -149 l0 -143 -47 22 c-67 30
-245 36 -329 12 -213 -62 -320 -219 -344 -503 -5 -65 -10 -314 -10 -554 l0
-438 -140 0 -140 0 2 863 3 862 138 3 137 3 0 -131 c0 -71 3 -130 8 -130 4 0
19 19 34 43 105 165 333 266 568 251 41 -3 85 -8 98 -11z m602 -888 l0 -865
-140 0 -140 0 0 865 0 865 140 0 140 0 0 -865z m-6030 -735 c11 -11 20 -29 20
-40 0 -26 -34 -60 -60 -60 -26 0 -60 34 -60 60 0 11 9 29 20 40 11 11 29 20
40 20 11 0 29 -9 40 -20z m0 -350 c11 -11 20 -29 20 -40 0 -26 -34 -60 -60
-60 -26 0 -60 34 -60 60 0 11 9 29 20 40 11 11 29 20 40 20 11 0 29 -9 40 -20z
m5605 -345 c14 -13 25 -33 25 -45 0 -27 -43 -70 -70 -70 -27 0 -70 43 -70 70
0 27 43 70 70 70 12 0 32 -11 45 -25z m350 0 c14 -13 25 -33 25 -45 0 -27 -43
-70 -70 -70 -27 0 -70 43 -70 70 0 27 43 70 70 70 12 0 32 -11 45 -25z m350 0
c14 -13 25 -33 25 -45 0 -27 -43 -70 -70 -70 -27 0 -70 43 -70 70 0 27 43 70
70 70 12 0 32 -11 45 -25z m-6305 -5 c11 -11 20 -29 20 -40 0 -26 -34 -60 -60
-60 -11 0 -29 9 -40 20 -11 11 -20 29 -20 40 0 11 9 29 20 40 11 11 29 20 40
20 11 0 29 -9 40 -20z"/>
<path d="M3515 2483 c-248 -33 -405 -259 -421 -608 -17 -342 105 -605 318
-687 68 -26 207 -35 279 -18 170 40 298 184 356 400 26 94 25 417 -1 510 -78
284 -279 436 -531 403z"/>
</g>
</svg>
