<?xml version="1.0" standalone="no"?>
<!DOCTYPE svg PUBLIC "-//W3C//DTD SVG 20010904//EN"
 "http://www.w3.org/TR/2001/REC-SVG-20010904/DTD/svg10.dtd">
<svg version="1.0" xmlns="http://www.w3.org/2000/svg"
 width="700.000000pt" height="700.000000pt" viewBox="0 0 700.000000 700.000000"
 preserveAspectRatio="xMidYMid meet">
<metadata>
Created by potrace 1.11, written by Peter Selinger 2001-2013
</metadata>
<g transform="translate(0.000000,700.000000) scale(0.100000,-0.100000)"
fill="#000000" stroke="none">
<path d="M0 3500 l0 -3500 3500 0 3500 0 0 3500 0 3500 -3500 0 -3500 0 0
-3500z m3540 2790 l0 -90 -410 0 -410 0 0 -250 0 -250 395 0 395 0 0 -90 0
-90 -395 0 -395 0 0 -305 0 -305 420 0 420 0 0 -90 0 -90 -530 0 -530 0 0 825
0 825 520 0 520 0 0 -90z m2808 -3997 l-3 -1328 -157 -3 -158 -3 0 1331 0
1330 160 0 160 0 -2 -1327z m-4188 1242 c167 -33 357 -106 488 -189 l42 -26 0
-181 0 -180 -69 56 c-147 119 -308 197 -485 237 -107 24 -332 29 -436 9 -394
-74 -619 -331 -686 -783 -22 -153 -15 -439 16 -582 41 -193 110 -332 224 -453
113 -121 237 -186 421 -224 143 -30 377 -23 515 15 125 35 277 110 380 188 46
35 91 69 102 77 17 13 18 7 18 -165 l0 -179 -83 -47 c-261 -150 -561 -216
-856 -189 -200 18 -340 55 -481 126 -445 224 -671 701 -629 1328 24 359 131
624 341 843 174 181 396 289 674 329 125 18 386 13 504 -10z m1370 -385 l0
-270 320 0 320 0 0 -125 0 -125 -320 0 -320 0 0 -587 c0 -721 1 -725 116 -783
48 -24 56 -25 287 -28 l237 -3 0 -136 0 -136 -247 6 c-284 6 -390 23 -493 78
-100 53 -150 126 -193 278 -20 73 -21 101 -25 694 l-3 617 -115 0 -114 0 0
125 0 125 115 0 115 0 0 270 0 270 160 0 160 0 0 -270z m2158 -244 c8 -5 12
-53 12 -163 0 -174 8 -161 -80 -127 -66 25 -237 30 -324 10 -185 -44 -318
-181 -371 -382 -29 -113 -35 -232 -35 -756 l0 -528 -155 0 -155 0 0 960 0 960
155 0 154 0 3 -145 3 -146 52 70 c98 131 225 208 403 246 68 15 315 15 338 1z
m-5298 -1816 c11 -11 20 -29 20 -40 0 -26 -34 -60 -60 -60 -26 0 -60 34 -60
60 0 11 9 29 20 40 11 11 29 20 40 20 11 0 29 -9 40 -20z m0 -350 c11 -11 20
-29 20 -40 0 -26 -34 -60 -60 -60 -26 0 -60 34 -60 60 0 11 9 29 20 40 11 11
29 20 40 20 11 0 29 -9 40 -20z m5605 -345 c14 -13 25 -33 25 -45 0 -27 -43
-70 -70 -70 -27 0 -70 43 -70 70 0 27 43 70 70 70 12 0 32 -11 45 -25z m350 0
c14 -13 25 -33 25 -45 0 -27 -43 -70 -70 -70 -27 0 -70 43 -70 70 0 27 43 70
70 70 12 0 32 -11 45 -25z m350 0 c14 -13 25 -33 25 -45 0 -27 -43 -70 -70
-70 -27 0 -70 43 -70 70 0 27 43 70 70 70 12 0 32 -11 45 -25z m-6305 -5 c11
-11 20 -29 20 -40 0 -26 -34 -60 -60 -60 -11 0 -29 9 -40 20 -11 11 -20 29
-20 40 0 11 9 29 20 40 11 11 29 20 40 20 11 0 29 -9 40 -20z"/>
</g>
</svg>
