<?xml version="1.0" standalone="no"?>
<!DOCTYPE svg PUBLIC "-//W3C//DTD SVG 20010904//EN"
 "http://www.w3.org/TR/2001/REC-SVG-20010904/DTD/svg10.dtd">
<svg version="1.0" xmlns="http://www.w3.org/2000/svg"
 width="700.000000pt" height="700.000000pt" viewBox="0 0 700.000000 700.000000"
 preserveAspectRatio="xMidYMid meet">
<metadata>
Created by potrace 1.11, written by Peter Selinger 2001-2013
</metadata>
<g transform="translate(0.000000,700.000000) scale(0.100000,-0.100000)"
fill="#000000" stroke="none">
<path d="M0 3500 l0 -3500 3500 0 3500 0 0 3500 0 3500 -3500 0 -3500 0 0
-3500z m3540 2790 l0 -90 -410 0 -410 0 0 -250 0 -250 395 0 395 0 0 -90 0
-90 -395 0 -395 0 0 -305 0 -305 420 0 420 0 0 -90 0 -90 -530 0 -530 0 0 825
0 825 520 0 520 0 0 -90z m-620 -4000 l0 -1330 -155 0 -155 0 0 1330 0 1330
155 0 155 0 0 -1330z m-850 1075 l0 -145 -560 0 -560 0 0 -375 0 -375 505 0
505 0 0 -145 0 -145 -505 0 -505 0 0 -610 0 -610 -170 0 -170 0 0 1275 0 1275
730 0 730 0 0 -145z m4788 -451 l52 -7 0 -159 c0 -149 -1 -160 -17 -153 -101
43 -262 57 -375 34 -184 -38 -316 -170 -379 -379 -23 -74 -23 -86 -29 -680
l-5 -605 -157 -3 -158 -3 0 961 0 961 158 -3 157 -3 3 -144 3 -144 28 45 c65
102 190 200 311 244 107 38 274 54 408 38z m-2996 -691 c4 -724 3 -705 68
-839 36 -73 91 -127 169 -162 46 -21 75 -27 161 -30 61 -3 130 1 163 8 189 39
338 191 393 401 15 56 18 143 21 672 l4 607 155 0 154 0 0 -960 0 -960 -155 0
-155 0 0 148 -1 147 -26 -35 c-52 -69 -169 -177 -229 -212 -132 -77 -298 -109
-464 -89 -168 21 -267 67 -372 172 -78 79 -134 185 -169 319 -22 83 -23 99
-26 778 l-4 692 155 0 155 0 3 -657z m-3472 -1133 c11 -11 20 -29 20 -40 0
-26 -34 -60 -60 -60 -26 0 -60 34 -60 60 0 11 9 29 20 40 11 11 29 20 40 20
11 0 29 -9 40 -20z m0 -350 c11 -11 20 -29 20 -40 0 -26 -34 -60 -60 -60 -26
0 -60 34 -60 60 0 11 9 29 20 40 11 11 29 20 40 20 11 0 29 -9 40 -20z m5605
-345 c14 -13 25 -33 25 -45 0 -27 -43 -70 -70 -70 -27 0 -70 43 -70 70 0 27
43 70 70 70 12 0 32 -11 45 -25z m350 0 c14 -13 25 -33 25 -45 0 -27 -43 -70
-70 -70 -27 0 -70 43 -70 70 0 27 43 70 70 70 12 0 32 -11 45 -25z m350 0 c14
-13 25 -33 25 -45 0 -27 -43 -70 -70 -70 -27 0 -70 43 -70 70 0 27 43 70 70
70 12 0 32 -11 45 -25z m-6305 -5 c11 -11 20 -29 20 -40 0 -26 -34 -60 -60
-60 -11 0 -29 9 -40 20 -11 11 -20 29 -20 40 0 11 9 29 20 40 11 11 29 20 40
20 11 0 29 -9 40 -20z"/>
</g>
</svg>
