<?xml version="1.0" standalone="no"?>
<!DOCTYPE svg PUBLIC "-//W3C//DTD SVG 20010904//EN"
 "http://www.w3.org/TR/2001/REC-SVG-20010904/DTD/svg10.dtd">
<svg version="1.0" xmlns="http://www.w3.org/2000/svg"
 width="700.000000pt" height="700.000000pt" viewBox="0 0 700.000000 700.000000"
 preserveAspectRatio="xMidYMid meet">
<metadata>
Created by potrace 1.11, written by Peter Selinger 2001-2013
</metadata>
<g transform="translate(0.000000,700.000000) scale(0.100000,-0.100000)"
fill="#000000" stroke="none">
<path d="M0 3500 l0 -3500 3500 0 3500 0 0 3500 0 3500 -3500 0 -3500 0 0
-3500z m3540 2790 l0 -90 -410 0 -410 0 0 -250 0 -250 395 0 395 0 0 -90 0
-90 -395 0 -395 0 0 -305 0 -305 420 0 420 0 0 -90 0 -90 -530 0 -530 0 0 825
0 825 520 0 520 0 0 -90z m2288 -1802 l3 -158 -131 0 -130 0 0 153 c0 85 3
157 7 161 4 3 61 5 127 4 l121 -3 3 -157z m-4382 -775 l449 -848 3 848 2 847
135 0 135 0 0 -1020 0 -1020 -187 2 -188 3 -450 850 -450 850 -3 -853 -2 -852
-130 0 -130 0 0 1020 0 1020 184 0 183 0 449 -847z m2055 352 c256 -65 431
-269 485 -565 17 -96 17 -333 0 -430 -31 -173 -91 -295 -201 -405 -78 -78
-174 -133 -285 -162 -90 -24 -311 -24 -398 0 -244 68 -399 232 -470 496 -23
86 -25 115 -26 281 0 159 3 197 22 273 78 309 273 491 572 530 64 9 236 -2
301 -18z m1800 9 c5 -3 9 -62 9 -130 0 -97 -3 -124 -12 -120 -115 48 -282 49
-383 3 -113 -52 -194 -158 -232 -299 -14 -53 -17 -138 -20 -535 l-5 -473 -124
0 -124 0 0 765 0 765 125 0 125 0 1 -117 c0 -114 1 -117 17 -93 36 54 128 142
176 169 62 35 132 59 206 71 55 9 224 5 241 -6z m529 -789 l0 -765 -130 0
-130 0 0 765 0 765 130 0 130 0 0 -765z m-4387 -935 c195 -19 316 -67 413
-164 72 -73 100 -127 122 -237 13 -68 14 -96 4 -171 -23 -188 -110 -295 -281
-348 l-54 -17 49 -12 c79 -20 165 -71 230 -137 99 -100 144 -217 144 -379 0
-272 -141 -452 -422 -537 -70 -21 -92 -22 -545 -26 l-473 -3 0 1020 0 1021
358 0 c196 0 401 -5 455 -10z m3057 -285 l0 -215 260 0 260 0 0 -100 0 -100
-260 0 -260 0 0 -412 c0 -564 10 -636 90 -683 31 -18 56 -20 233 -23 l197 -4
0 -105 0 -105 -227 4 c-199 4 -236 7 -294 26 -124 41 -184 107 -223 247 -18
64 -20 113 -24 563 l-3 492 -90 0 -89 0 0 100 0 100 90 0 90 0 0 215 0 215
125 0 125 0 0 -215z m1100 0 l0 -215 260 0 260 0 0 -100 0 -100 -260 0 -260 0
0 -422 c0 -566 8 -624 90 -673 31 -18 55 -20 233 -23 l197 -4 0 -105 0 -105
-227 4 c-201 4 -236 7 -295 27 -120 39 -185 110 -224 246 -15 52 -18 123 -22
558 l-3 497 -90 0 -89 0 0 100 0 100 90 0 90 0 0 215 0 215 125 0 125 0 0
-215z m-2255 -200 c176 -37 334 -162 415 -329 55 -114 80 -234 80 -393 l0
-123 -575 0 -575 0 0 -33 c0 -50 35 -179 67 -244 57 -117 181 -209 322 -239
180 -38 456 4 644 98 l57 28 0 -119 0 -120 -53 -19 c-173 -65 -320 -92 -504
-92 -215 0 -359 40 -502 141 -215 151 -322 427 -291 753 11 110 46 249 81 319
37 72 106 163 166 217 70 63 212 133 308 154 91 19 272 20 360 1z m-2955 -775
c11 -11 20 -29 20 -40 0 -26 -34 -60 -60 -60 -26 0 -60 34 -60 60 0 11 9 29
20 40 11 11 29 20 40 20 11 0 29 -9 40 -20z m0 -350 c11 -11 20 -29 20 -40 0
-26 -34 -60 -60 -60 -26 0 -60 34 -60 60 0 11 9 29 20 40 11 11 29 20 40 20
11 0 29 -9 40 -20z m5955 -345 c14 -13 25 -33 25 -45 0 -27 -43 -70 -70 -70
-27 0 -70 43 -70 70 0 27 43 70 70 70 12 0 32 -11 45 -25z m350 0 c14 -13 25
-33 25 -45 0 -27 -43 -70 -70 -70 -27 0 -70 43 -70 70 0 27 43 70 70 70 12 0
32 -11 45 -25z m-6305 -5 c11 -11 20 -29 20 -40 0 -26 -34 -60 -60 -60 -11 0
-29 9 -40 20 -11 11 -20 29 -20 40 0 11 9 29 20 40 11 11 29 20 40 20 11 0 29
-9 40 -20z"/>
<path d="M3175 3856 c-145 -47 -250 -180 -291 -366 -21 -100 -22 -311 0 -410
20 -94 71 -202 124 -261 108 -122 314 -160 470 -87 104 49 192 171 234 327 30
110 30 343 0 454 -42 155 -129 273 -239 325 -49 23 -73 27 -158 29 -62 2 -115
-2 -140 -11z"/>
<path d="M900 1819 l0 -311 268 5 c287 5 332 12 417 61 82 48 125 133 125 246
0 166 -93 269 -271 299 -36 6 -172 11 -302 11 l-237 0 0 -311z"/>
<path d="M900 914 l0 -376 293 4 c273 4 296 6 357 27 105 37 160 85 203 178
19 41 22 65 22 168 0 116 -1 123 -33 187 -49 100 -113 145 -244 172 -59 12
-139 16 -338 16 l-260 0 0 -376z"/>
<path d="M3043 1655 c-165 -37 -283 -154 -328 -326 -8 -30 -15 -66 -15 -81 l0
-28 445 0 445 0 0 29 c0 54 -20 136 -49 198 -38 80 -105 147 -188 185 -55 26
-80 31 -157 34 -55 2 -116 -2 -153 -11z"/>
</g>
</svg>
