<?xml version="1.0" standalone="no"?>
<!DOCTYPE svg PUBLIC "-//W3C//DTD SVG 20010904//EN"
 "http://www.w3.org/TR/2001/REC-SVG-20010904/DTD/svg10.dtd">
<svg version="1.0" xmlns="http://www.w3.org/2000/svg"
 width="700.000000pt" height="700.000000pt" viewBox="0 0 700.000000 700.000000"
 preserveAspectRatio="xMidYMid meet">
<metadata>
Created by potrace 1.11, written by Peter Selinger 2001-2013
</metadata>
<g transform="translate(0.000000,700.000000) scale(0.100000,-0.100000)"
fill="#000000" stroke="none">
<path d="M0 3500 l0 -3500 3500 0 3500 0 0 831 c0 661 -3 829 -12 823 -72 -42
-110 -93 -133 -181 -12 -44 -15 -123 -15 -345 l0 -288 -80 0 -80 0 0 480 0
480 80 0 80 0 0 -71 0 -71 44 49 c24 27 60 58 80 68 l36 20 0 362 0 363 -94 0
-94 0 -5 458 c-4 474 -7 506 -50 587 -19 38 -71 87 -117 111 -53 29 -227 26
-293 -4 -69 -31 -150 -111 -180 -180 -39 -86 -47 -190 -47 -599 l0 -373 -110
0 -110 0 0 670 0 670 110 0 110 0 0 -102 0 -102 64 70 c104 114 220 164 379
164 124 0 230 -37 307 -106 46 -42 74 -85 106 -163 l24 -56 0 1718 0 1717
-3500 0 -3500 0 0 -3500z m3540 2790 l0 -90 -410 0 -410 0 0 -250 0 -250 395
0 395 0 0 -90 0 -90 -395 0 -395 0 0 -305 0 -305 420 0 420 0 0 -90 0 -90
-530 0 -530 0 0 825 0 825 520 0 520 0 0 -90z m1032 -2271 l3 -361 35 48 c44
60 134 126 208 155 115 44 314 34 421 -20 90 -47 168 -154 207 -287 15 -52 18
-119 21 -546 l4 -488 -110 0 -110 0 -3 468 c-3 412 -6 473 -21 519 -24 72 -73
132 -132 162 -43 23 -62 26 -150 26 -87 0 -107 -4 -156 -26 -107 -50 -172
-131 -204 -254 -12 -49 -15 -134 -15 -477 l0 -418 -110 0 -110 0 0 930 0 930
110 0 110 0 2 -361z m-3711 -459 c103 -410 188 -747 189 -750 1 -3 86 333 189
745 l186 750 135 0 135 0 186 -743 c103 -409 189 -746 192 -748 3 -3 10 18 17
48 6 29 89 366 184 748 l173 695 122 3 123 3 -6 -28 c-4 -15 -104 -417 -224
-893 l-217 -865 -151 -3 c-116 -2 -153 1 -156 10 -3 7 -87 354 -188 770 -101
417 -186 756 -188 753 -2 -2 -88 -347 -191 -767 l-187 -763 -152 -3 -151 -3
-10 38 c-89 337 -437 1743 -433 1748 3 3 58 4 121 3 l116 -3 186 -745z m2671
315 c106 -22 191 -68 268 -144 126 -125 190 -306 190 -541 -1 -253 -66 -432
-205 -558 -110 -101 -227 -142 -406 -142 -223 0 -385 76 -490 231 -87 129
-122 260 -122 464 0 177 19 270 78 392 76 154 191 249 357 293 89 23 235 26
330 5z m-1662 -1805 l0 -101 -77 3 -78 3 -3 98 -3 97 81 0 80 0 0 -100z m-420
-18 l0 -68 -399 -494 -400 -495 410 -3 409 -2 0 -75 0 -75 -520 0 -520 0 0 68
1 67 400 495 400 495 -390 3 -391 2 0 75 0 75 500 0 500 0 0 -68z m1306 -247
c62 -18 126 -72 162 -135 l28 -48 44 56 c55 69 108 106 181 126 204 58 369
-46 408 -258 7 -35 11 -192 11 -383 l0 -323 -80 0 -79 0 -3 348 c-3 329 -4
349 -24 393 -29 63 -73 92 -146 97 -31 2 -73 1 -92 -2 -46 -9 -111 -54 -141
-98 -48 -71 -55 -127 -55 -445 l0 -293 -80 0 -79 0 -3 353 c-3 342 -4 353 -25
394 -34 63 -75 87 -154 91 -38 2 -84 -1 -105 -8 -53 -18 -118 -81 -145 -143
-23 -51 -24 -61 -27 -369 l-3 -318 -80 0 -79 0 2 478 3 477 78 3 77 3 0 -73 0
-73 43 46 c55 61 93 86 158 103 71 19 144 19 205 1z m1734 -9 c64 -33 100 -67
131 -122 l31 -54 39 53 c79 105 195 156 327 144 124 -12 211 -87 254 -216 20
-61 22 -91 26 -413 l4 -348 -80 0 -81 0 -3 343 c-3 303 -5 347 -21 382 -37 81
-87 115 -173 115 -112 0 -183 -41 -232 -134 l-27 -51 -3 -327 -3 -328 -80 0
-79 0 0 315 c0 186 -4 334 -11 364 -22 105 -86 161 -182 161 -115 0 -180 -37
-232 -131 l-30 -54 -3 -327 -3 -328 -80 0 -79 0 0 480 0 480 80 0 80 0 0 -71
0 -72 40 46 c76 86 157 119 280 114 47 -2 88 -10 110 -21z m1622 13 c201 -43
318 -215 318 -466 l0 -63 -361 0 -362 0 6 -52 c9 -72 59 -170 105 -207 69 -54
114 -66 247 -66 119 1 176 14 308 70 15 6 17 0 17 -64 l0 -72 -35 -15 c-78
-32 -200 -54 -305 -54 -156 0 -253 30 -348 107 -202 164 -213 567 -22 763 102
105 275 152 432 119z m-4242 -489 l0 -480 -80 0 -80 0 0 473 c0 261 3 477 7
480 3 4 39 7 80 7 l73 0 0 -480z m-1480 -230 c11 -11 20 -29 20 -40 0 -26 -34
-60 -60 -60 -26 0 -60 34 -60 60 0 11 9 29 20 40 11 11 29 20 40 20 11 0 29
-9 40 -20z m0 -350 c11 -11 20 -29 20 -40 0 -26 -34 -60 -60 -60 -26 0 -60 34
-60 60 0 11 9 29 20 40 11 11 29 20 40 20 11 0 29 -9 40 -20z m5605 -345 c14
-13 25 -33 25 -45 0 -27 -43 -70 -70 -70 -27 0 -70 43 -70 70 0 27 43 70 70
70 12 0 32 -11 45 -25z m350 0 c14 -13 25 -33 25 -45 0 -27 -43 -70 -70 -70
-27 0 -70 43 -70 70 0 27 43 70 70 70 12 0 32 -11 45 -25z m350 0 c14 -13 25
-33 25 -45 0 -27 -43 -70 -70 -70 -27 0 -70 43 -70 70 0 27 43 70 70 70 12 0
32 -11 45 -25z m-6305 -5 c11 -11 20 -29 20 -40 0 -26 -34 -60 -60 -60 -11 0
-29 9 -40 20 -11 11 -20 29 -20 40 0 11 9 29 20 40 11 11 29 20 40 20 11 0 29
-9 40 -20z"/>
<path d="M3311 3699 c-109 -18 -204 -94 -256 -205 -78 -165 -76 -466 5 -624
28 -55 94 -126 144 -155 83 -47 217 -56 304 -19 152 63 237 217 248 449 18
369 -168 600 -445 554z"/>
<path d="M5921 1675 c-109 -31 -184 -117 -205 -237 l-7 -38 282 0 282 0 -6 54
c-9 89 -61 167 -139 207 -52 26 -140 32 -207 14z"/>
</g>
</svg>
