<?xml version="1.0" standalone="no"?>
<!DOCTYPE svg PUBLIC "-//W3C//DTD SVG 20010904//EN"
 "http://www.w3.org/TR/2001/REC-SVG-20010904/DTD/svg10.dtd">
<svg version="1.0" xmlns="http://www.w3.org/2000/svg"
 width="700.000000pt" height="700.000000pt" viewBox="0 0 700.000000 700.000000"
 preserveAspectRatio="xMidYMid meet">
<metadata>
Created by potrace 1.11, written by Peter Selinger 2001-2013
</metadata>
<g transform="translate(0.000000,700.000000) scale(0.100000,-0.100000)"
fill="#000000" stroke="none">
<path d="M0 3500 l0 -3500 3500 0 3500 0 0 3500 0 3500 -3500 0 -3500 0 0
-3500z m3540 2790 l0 -90 -410 0 -410 0 0 -250 0 -250 395 0 395 0 0 -90 0
-90 -395 0 -395 0 0 -305 0 -305 420 0 420 0 0 -90 0 -90 -530 0 -530 0 0 825
0 825 520 0 520 0 0 -90z m-2109 -2967 c216 -60 357 -198 404 -394 19 -84 19
-284 0 -368 -58 -246 -238 -386 -540 -421 -49 -5 -179 -10 -287 -10 l-198 0 0
-410 0 -410 -135 0 -135 0 0 1021 0 1020 408 -3 c378 -4 413 -6 483 -25z
m1345 -454 c266 -37 430 -187 490 -449 15 -64 18 -149 21 -592 l4 -518 -125 0
-126 0 0 118 -1 117 -21 -30 c-77 -108 -200 -192 -320 -220 -289 -67 -552 25
-650 227 -37 76 -47 127 -48 238 0 277 129 427 429 496 46 11 148 17 339 21
308 6 280 -4 261 98 -25 134 -105 224 -238 265 -161 51 -395 28 -596 -56 -44
-19 -81 -34 -82 -34 -2 0 -3 51 -3 113 l0 113 83 27 c217 70 403 91 583 66z
m1895 -3 c231 -49 414 -262 473 -547 34 -165 30 -363 -9 -526 -24 -99 -105
-258 -166 -326 -133 -149 -312 -214 -514 -188 -173 23 -279 86 -382 226 l-22
30 -1 -402 0 -403 -125 0 -125 0 0 1055 0 1055 125 0 125 0 1 -112 c0 -108 1
-112 16 -88 38 57 150 157 207 184 113 54 266 70 397 42z m1692 -15 c105 -28
170 -64 243 -136 70 -69 115 -150 147 -264 20 -72 21 -101 25 -608 l3 -533
-125 0 -126 0 0 117 0 116 -29 -41 c-76 -104 -182 -175 -311 -208 -81 -21
-264 -24 -340 -5 -159 39 -273 137 -330 286 -31 79 -35 268 -7 357 39 127 147
236 284 288 113 43 186 51 467 57 l269 5 -5 62 c-19 229 -228 353 -535 317
-117 -13 -250 -49 -323 -86 -27 -14 -54 -25 -60 -25 -7 0 -10 38 -8 112 l3
112 50 19 c71 26 230 66 306 77 104 14 313 5 402 -19z m-5973 -1761 c11 -11
20 -29 20 -40 0 -26 -34 -60 -60 -60 -26 0 -60 34 -60 60 0 11 9 29 20 40 11
11 29 20 40 20 11 0 29 -9 40 -20z m0 -350 c11 -11 20 -29 20 -40 0 -26 -34
-60 -60 -60 -26 0 -60 34 -60 60 0 11 9 29 20 40 11 11 29 20 40 20 11 0 29
-9 40 -20z m5605 -345 c14 -13 25 -33 25 -45 0 -27 -43 -70 -70 -70 -27 0 -70
43 -70 70 0 27 43 70 70 70 12 0 32 -11 45 -25z m350 0 c14 -13 25 -33 25 -45
0 -27 -43 -70 -70 -70 -27 0 -70 43 -70 70 0 27 43 70 70 70 12 0 32 -11 45
-25z m350 0 c14 -13 25 -33 25 -45 0 -27 -43 -70 -70 -70 -27 0 -70 43 -70 70
0 27 43 70 70 70 12 0 32 -11 45 -25z m-6305 -5 c11 -11 20 -29 20 -40 0 -26
-34 -60 -60 -60 -11 0 -29 9 -40 20 -11 11 -20 29 -20 40 0 11 9 29 20 40 11
11 29 20 40 20 11 0 29 -9 40 -20z"/>
<path d="M810 2744 l0 -386 238 4 c274 5 312 14 401 94 77 69 105 136 109 260
8 193 -51 305 -193 370 -74 34 -158 44 -367 44 l-188 0 0 -386z"/>
<path d="M2590 2074 c-162 -25 -226 -50 -279 -110 -49 -56 -65 -113 -59 -211
9 -152 88 -235 250 -263 194 -34 384 64 472 244 39 81 53 140 62 261 l7 85
-214 -1 c-118 -1 -225 -3 -239 -5z"/>
<path d="M4368 2655 c-144 -39 -244 -159 -294 -350 -27 -104 -25 -361 4 -466
56 -205 163 -318 332 -349 222 -40 403 96 471 355 25 96 31 321 10 425 -27
139 -103 273 -189 332 -90 62 -224 84 -334 53z"/>
<path d="M6051 2069 c-148 -19 -236 -67 -280 -154 -35 -67 -37 -196 -5 -266
58 -124 207 -187 378 -159 231 37 385 244 386 518 l0 72 -207 -1 c-115 -1
-237 -5 -272 -10z"/>
</g>
</svg>
